<svg height="512pt" viewBox="0 0 512 512" width="512pt" xmlns="http://www.w3.org/2000/svg"><path d="m30.605469 286 44.394531-155.40625 44.394531 155.40625h30.359375c0-1.367188.070313-2.738281-.324218-4.117188l-60-210c-3.691407-12.890624-25.167969-12.890624-28.859376 0l-60 210c-.390624 1.378907-.324218 2.75-.324218 4.117188zm0 0" fill="#ffe470"/><path d="m392.605469 286 44.394531-155.40625 44.394531 155.40625h30.359375c0-1.367188.070313-2.738281-.324218-4.117188l-60-210c-3.691407-12.890624-25.167969-12.890624-28.859376 0l-60 210c-.390624 1.378907-.324218 2.75-.324218 4.117188zm0 0" fill="#ffd400"/><path d="m226 91h-151c-41.351562 0-75-34.648438-75-76 0-8.289062 6.710938-15 15-15s15 6.710938 15 15c0 24.8125 20.1875 46 45 46h151c8.289062 0 15 6.710938 15 15s-6.710938 15-15 15zm0 0" fill="#fdbf00"/><path d="m301 256c0 19.5-12.597656 36-30 42.300781v76.5c0 8.398438-6.597656 15-15 15s-15-6.601562-15-15v-76.800781c-9.902344-3.601562-18.601562-10.199219-24-19.5-4.199219-7.199219-1.800781-16.199219 5.398438-20.398438 7.203124-4.203124 16.5-1.800781 20.703124 5.398438 2.699219 4.5 7.5 7.5 12.898438 7.5 8.402344 0 15-6.601562 15-15 0-8.402344-6.597656-15-15-15-24.902344 0-45-20.101562-45-45 0-19.5 12.597656-36 30-42.300781v-47.699219c0-8.402344 6.597656-15 15-15s15 6.597656 15 15v48c9.902344 3.597656 18.601562 10.199219 24 19.5 4.199219 7.199219 1.800781 16.199219-5.398438 20.398438-7.203124 4.203124-16.5 1.800781-20.703124-5.398438-2.699219-4.5-7.5-7.5-12.898438-7.5-8.402344 0-15 6.597656-15 15 0 8.398438 6.597656 15 15 15 24.902344 0 45 20.097656 45 45zm0 0" fill="#fdbf00"/><path d="m331 376v60c0 8.398438-6.597656 15-15 15h-120c-8.402344 0-15-6.601562-15-15v-60c0-8.402344 6.597656-15 15-15h120c8.402344 0 15 6.597656 15 15zm0 0" fill="#ffe470"/><path d="m301 256c0 19.5-12.597656 36-30 42.300781v76.5c0 8.398438-6.597656 15-15 15v-118.800781c8.402344 0 15-6.601562 15-15 0-8.402344-6.597656-15-15-15v-30c24.902344 0 45 20.097656 45 45zm0 0" fill="#ff9f00"/><path d="m256 181v-90c8.402344 0 15 6.597656 15 15v48c9.902344 3.597656 18.601562 10.199219 24 19.5 4.199219 7.199219 1.800781 16.199219-5.398438 20.398438-7.203124 4.203124-16.5 1.800781-20.703124-5.398438-2.699219-4.5-7.5-7.5-12.898438-7.5zm0 0" fill="#ff9f00"/><path d="m316 451h-60v-90h60c8.402344 0 15 6.597656 15 15v60c0 8.398438-6.597656 15-15 15zm0 0" fill="#ffd400"/><path d="m271 15v31c0 8.398438-6.597656 15-15 15s-15-6.601562-15-15v-31c0-8.402344 6.597656-15 15-15s15 6.597656 15 15zm0 0" fill="#fdbf00"/><path d="m256 31c-24.902344 0-45 20.097656-45 45 0 24.898438 20.097656 45 45 45s45-20.101562 45-45c0-24.902344-20.097656-45-45-45zm0 0" fill="#ffe470"/><path d="m75 361c-32.371094 0-60.980469-20.640625-71.191406-51.34375-2.519532-7.601562-3.808594-15.570312-3.808594-23.65625 0-8.289062 6.710938-15 15-15h120c8.289062 0 15 6.710938 15 15 0 41.351562-33.648438 75-75 75zm0 0" fill="#fdbf00"/><path d="m437 361c-32.371094 0-60.980469-20.640625-71.191406-51.34375-2.519532-7.601562-3.808594-15.570312-3.808594-23.65625 0-8.289062 6.710938-15 15-15h120c8.289062 0 15 6.710938 15 15 0 41.351562-33.648438 75-75 75zm0 0" fill="#ff9f00"/><path d="m437 91h-151c-8.289062 0-15-6.710938-15-15s6.710938-15 15-15h151c24.8125 0 45-21.1875 45-46 0-8.289062 6.710938-15 15-15s15 6.710938 15 15c0 41.351562-33.648438 76-75 76zm0 0" fill="#ff9f00"/><path d="m390.699219 495.199219h-269.398438c.300781-1.800781.601563-3.300781 1.199219-4.800781l30-61c2.699219-5.097657 7.800781-8.398438 13.5-8.398438h180c5.699219 0 10.800781 3.300781 13.5 8.398438l30 61c.597656 1.5.898438 3 1.199219 4.800781zm0 0" fill="#fdbf00"/><path d="m256 61v-61c8.402344 0 15 6.597656 15 15v31c0 8.398438-6.597656 15-15 15zm0 0" fill="#ff9f00"/><path d="m390.699219 495.199219h-134.699219v-74.199219h90c5.699219 0 10.800781 3.300781 13.5 8.398438l30 61c.597656 1.5.898438 3 1.199219 4.800781zm0 0" fill="#ff9f00"/><path d="m256 121v-90c24.902344 0 45 20.097656 45 45 0 24.898438-20.097656 45-45 45zm0 0" fill="#ffd400"/><path d="m421 497c0 8.398438-6.597656 15-15 15h-300c-8.402344 0-15-6.601562-15-15 0-8.402344 6.597656-15 15-15h300c8.402344 0 15 6.597656 15 15zm0 0" fill="#ffe470"/><path d="m421 497c0 8.398438-6.597656 15-15 15h-150v-30h150c8.402344 0 15 6.597656 15 15zm0 0" fill="#ffd400"/></svg>